<svg xmlns="http://www.w3.org/2000/svg" xmlns:xlink="http://www.w3.org/1999/xlink" width="500" zoomAndPan="magnify" viewBox="0 0 375 374.999991" height="500" preserveAspectRatio="xMidYMid meet" version="1.0"><defs><g/><clipPath id="da02a847ec"><path d="M 0 0 L 369.75 0 L 369.75 369.75 L 0 369.75 Z M 0 0 " clip-rule="nonzero"/></clipPath><clipPath id="df46b5da94"><path d="M 0 0 L 323 0 L 323 369.75 L 0 369.75 Z M 0 0 " clip-rule="nonzero"/></clipPath><clipPath id="2273b522b9"><path d="M 44 0 L 369.75 0 L 369.75 369.75 L 44 369.75 Z M 44 0 " clip-rule="nonzero"/></clipPath></defs><g clip-path="url(#da02a847ec)"><path fill="#49aa27" d="M 293.558594 369.75 L 76.191406 369.75 C 34.113281 369.75 0 335.636719 0 293.558594 L 0 76.191406 C 0 34.113281 34.113281 0 76.191406 0 L 293.558594 0 C 335.636719 0 369.75 34.113281 369.75 76.191406 L 369.75 293.558594 C 369.75 335.636719 335.636719 369.75 293.558594 369.75 Z M 293.558594 369.75 " fill-opacity="1" fill-rule="nonzero"/></g><g clip-path="url(#df46b5da94)"><path stroke-linecap="butt" transform="matrix(0.983116, 0, 0, 0.983116, 0.0000045, 0)" fill="none" stroke-linejoin="miter" d="M 129.300278 68.19833 L 85.800201 148.698106 L 42.399458 229.098549 C 38.501616 236.198899 43.301405 245.198504 51.001729 245.198504 L 110.001787 245.198504 L 110.001787 301.600001 C 110.001787 307.901711 115.099577 313.098833 121.50062 313.098833 L 153.799864 313.098833 C 160.101574 313.098833 165.298697 308.001044 165.298697 301.600001 L 165.298697 245.198504 L 147.998794 245.198504 C 140.29847 245.198504 135.498681 236.198899 139.400496 229.098549 L 182.801239 148.698106 L 186.500415 141.899729 L 146.699514 68.19833 C 142.698365 61.101953 133.098786 61.101953 129.300278 68.19833 Z M 129.300278 68.19833 " stroke="#f3f6f6" stroke-width="10" stroke-opacity="1" stroke-miterlimit="10"/></g><g clip-path="url(#2273b522b9)"><path stroke-linecap="butt" transform="matrix(0.983116, 0, 0, 0.983116, 0.0000045, 0)" fill="none" stroke-linejoin="miter" d="M 330.299398 229.201855 L 286.898655 148.801413 L 243.398578 68.301636 C 239.60007 61.201286 230.000491 61.201286 226.098676 68.301636 L 186.401081 141.999062 L 190.100257 148.801413 L 233.501 229.201855 C 237.398842 236.298232 232.599053 245.301811 224.898728 245.301811 L 206.998852 245.301811 L 206.998852 301.699334 C 206.998852 308.001044 212.100615 313.198167 218.501658 313.198167 L 250.800902 313.198167 C 257.098639 313.198167 262.299735 308.100377 262.299735 301.699334 L 262.299735 245.301811 L 321.899767 245.301811 C 329.401424 245.301811 334.201213 236.298232 330.299398 229.201855 Z M 330.299398 229.201855 " stroke="#f3f6f6" stroke-width="10" stroke-opacity="1" stroke-miterlimit="10"/></g><g fill="#fbfaf9" fill-opacity="1"><g transform="translate(128.598615, 354.294063)"><g><path d="M 0 0 L 0 -22.859375 L 2.546875 -22.859375 L 2.546875 -2.546875 L 12.703125 -2.546875 L 12.703125 0 Z M 0 0 "/></g></g></g><g fill="#fbfaf9" fill-opacity="1"><g transform="translate(145.529497, 354.294063)"><g><path d="M 2.546875 0 L 2.546875 -2.546875 L 5.078125 -2.546875 L 5.078125 -20.328125 L 2.546875 -20.328125 L 2.546875 -22.859375 L 10.15625 -22.859375 L 10.15625 -20.328125 L 7.625 -20.328125 L 7.625 -2.546875 L 10.15625 -2.546875 L 10.15625 0 Z M 2.546875 0 "/></g></g></g><g fill="#fbfaf9" fill-opacity="1"><g transform="translate(162.460378, 354.294063)"><g><path d="M 0 0 L 0 -22.859375 L 2.109375 -22.859375 L 10.15625 -6.78125 L 10.15625 -22.859375 L 12.703125 -22.859375 L 12.703125 0 L 11 0 L 2.546875 -16.9375 L 2.546875 0 Z M 0 0 "/></g></g></g><g fill="#fbfaf9" fill-opacity="1"><g transform="translate(179.391259, 354.294063)"><g><path d="M 0 0 L 0 -22.859375 L 2.546875 -22.859375 L 2.546875 -12.703125 L 5.5 -12.703125 L 10.578125 -22.859375 L 11 -22.859375 L 12.703125 -22.015625 L 7.40625 -11.4375 L 12.703125 -0.84375 L 11 0 L 10.578125 0 L 5.5 -10.15625 L 2.546875 -10.15625 L 2.546875 0 Z M 0 0 "/></g></g></g><g fill="#fbfaf9" fill-opacity="1"><g transform="translate(207.030665, 354.294063)"><g><path d="M 0 0 L 0 -22.859375 L 2.109375 -22.859375 L 6.34375 -14.390625 L 10.578125 -22.859375 L 12.703125 -22.859375 L 12.703125 0 L 10.15625 0 L 10.15625 -16.9375 L 7.203125 -11 L 5.5 -11 L 2.546875 -16.9375 L 2.546875 0 Z M 0 0 "/></g></g></g><g fill="#fbfaf9" fill-opacity="1"><g transform="translate(223.961547, 354.294063)"><g><path d="M 0 0 L 0 -22.859375 L 12.703125 -22.859375 L 12.703125 -20.328125 L 2.546875 -20.328125 L 2.546875 -12.703125 L 10.15625 -12.703125 L 10.15625 -10.15625 L 2.546875 -10.15625 L 2.546875 -2.546875 L 12.703125 -2.546875 L 12.703125 0 Z M 0 0 "/></g></g></g></svg>